<svg width="21" height="21" viewBox="0 0 21 21" fill="none" xmlns="http://www.w3.org/2000/svg">
<path d="M16.7795 20.122C16.1529 20.3657 15.4297 20.5358 14.3776 20.5822C13.3216 20.6287 12.9851 20.6402 10.2968 20.6402C7.60853 20.6402 7.27189 20.6287 6.21604 20.5822C5.16382 20.5358 4.44445 20.3657 3.81394 20.122C3.15637 19.8745 2.55683 19.4837 2.06169 18.9809C1.55885 18.4858 1.16827 17.8902 0.916844 17.2249C0.673128 16.5981 0.502844 15.8748 0.456458 14.8228M16.7795 20.122L6.24184 1.39738C7.28693 1.35147 7.61499 1.33984 10.3006 1.33984C12.9864 1.33984 13.3136 1.35148 14.3616 1.40123L14.3633 1.40131C15.3661 1.44552 16.0316 1.60596 16.6069 1.82839L16.6069 1.8284L16.6111 1.82998C17.2004 2.05176 17.7386 2.40233 18.1832 2.85391L18.1831 2.85398L18.1901 2.86073C18.6438 3.30405 18.9907 3.83763 19.2168 4.43588L19.2167 4.43589L19.2185 4.44033C19.4404 5.01102 19.601 5.67987 19.6452 6.68325C19.691 7.72686 19.695 8.05324 19.695 10.742C19.695 13.4276 19.6834 13.7557 19.6375 14.8007C19.5933 15.8035 19.4327 16.4691 19.2104 17.0447C18.7467 18.2438 17.7985 19.192 16.5992 19.6556L16.5983 19.656C16.0278 19.8779 15.3589 20.0385 14.3556 20.0827C13.3105 20.1287 12.9825 20.1402 10.2968 20.1402C7.61108 20.1402 7.28298 20.1287 6.23806 20.0827C5.23508 20.0385 4.56969 19.878 3.99421 19.6556L3.99006 19.654C3.40081 19.4322 2.86262 19.0817 2.41796 18.6301L2.418 18.63L2.4125 18.6246C1.96055 18.1796 1.61015 17.645 1.38456 17.0481L1.38458 17.0481L1.38285 17.0437C1.16092 16.4729 1.00022 15.8041 0.955976 14.8008L0.456458 14.8228M16.7795 20.122C18.1102 19.6075 19.1623 18.5554 19.6768 17.2249L16.7795 20.122ZM0.456458 14.8228C0.410072 13.7668 0.398438 13.4303 0.398438 10.742C0.398438 8.05372 0.410072 7.71723 0.460386 6.6573L0.955973 14.8007M0.456458 14.8228L0.955973 14.8007M0.955973 14.8007C0.910066 13.7557 0.898438 13.4276 0.898438 10.742C0.898438 8.0562 0.910075 7.72903 0.959827 6.68101L0.959901 6.67932C1.00412 5.6765 1.16455 5.01111 1.38699 4.43561L1.38701 4.43562L1.38854 4.43157C1.6105 3.84219 1.96097 3.30398 2.4125 2.85937L2.41257 2.85944L2.41932 2.85252C2.86264 2.39879 3.39621 2.05192 3.99459 1.82583L3.9946 1.82585M0.955973 14.8007L3.9946 1.82585M3.9946 1.82585L3.99902 1.82413M3.9946 1.82585L3.99902 1.82413M3.99902 1.82413C4.56962 1.60233 5.23849 1.44162 6.24176 1.39738L3.99902 1.82413ZM18.4875 16.7633C18.642 16.3659 18.8161 15.7902 18.8612 14.7676C18.908 13.7124 18.9197 13.3944 18.9197 10.7497C18.9197 8.10499 18.908 7.78327 18.8612 6.72804C18.8162 5.71227 18.643 5.13312 18.4887 4.73559C18.305 4.24012 18.015 3.7937 17.637 3.4231C17.2679 3.04212 16.8162 2.75232 16.3225 2.56938C15.9253 2.41522 15.3499 2.24195 14.3302 2.19699L18.4875 16.7633ZM18.4875 16.7633C18.104 17.757 17.3157 18.5453 16.322 18.9288C15.9244 19.0834 15.3448 19.2575 14.326 19.3024C13.2709 19.3494 12.949 19.3609 10.3045 19.3609C7.66026 19.3609 7.33424 19.3494 6.28295 19.3024C6.28282 19.3024 6.28268 19.3024 6.28255 19.3024L18.4875 16.7633ZM2.97577 18.0763C3.34491 18.4573 3.79669 18.7471 4.29027 18.9302L1.75181 14.7716C1.7966 15.7872 1.96981 16.3665 2.12407 16.764C2.3078 17.2593 2.59784 17.7057 2.97577 18.0763ZM1.69329 10.7497C1.69329 13.3942 1.70478 13.7162 1.7518 14.7714L6.28663 2.19699C5.27108 2.24193 4.69179 2.41511 4.29425 2.56937C3.79917 2.75279 3.35307 3.04251 2.9828 3.41998C2.59698 3.78988 2.30707 4.24204 2.12406 4.73559C1.9699 5.13283 1.79662 5.70821 1.75181 6.72788C1.70478 7.77935 1.69329 8.10511 1.69329 10.7497ZM10.3083 2.13848C7.6638 2.13848 7.34188 2.15012 6.28671 2.19699L14.3299 2.19698C13.2786 2.15012 12.9567 2.13848 10.3083 2.13848Z" fill="white" stroke="white"/>
<path d="M5.71484 10.7398C5.71484 8.20768 7.76934 6.15332 10.3013 6.15332C12.8334 6.15332 14.8878 8.20767 14.8878 10.7398C14.8878 13.2719 12.8334 15.3262 10.3013 15.3262C7.76934 15.3262 5.71484 13.2719 5.71484 10.7398ZM6.50184 10.7398C6.50184 12.8378 8.20342 14.5392 10.3013 14.5392C12.3993 14.5392 14.1008 12.8378 14.1008 10.7398C14.1008 8.64174 12.3993 6.94032 10.3013 6.94032C8.20342 6.94032 6.50184 8.64172 6.50184 10.7398Z" fill="white" stroke="white"/>
<path d="M16.2774 5.45259C16.2774 5.83216 15.9696 6.14005 15.5898 6.14005C15.2102 6.14005 14.9023 5.8322 14.9023 5.45259C14.9023 5.07287 15.2101 4.76514 15.5898 4.76514C15.9696 4.76514 16.2774 5.07291 16.2774 5.45259Z" fill="white" stroke="white"/>
</svg>
