<svg width="18" height="18" viewBox="0 0 18 18" fill="none" xmlns="http://www.w3.org/2000/svg">
<path d="M7.70182 1.43286C8.07296 0.70561 9.11211 0.705609 9.48325 1.43286L11.4008 5.19028C11.5461 5.475 11.8188 5.6731 12.1344 5.72331L16.3005 6.38589C17.1069 6.51413 17.428 7.50242 16.851 8.08013L13.87 11.0649C13.6441 11.2911 13.54 11.6116 13.5898 11.9274L14.247 16.0943C14.3742 16.9008 13.5336 17.5116 12.8058 17.1414L9.04596 15.2287C8.76105 15.0837 8.42402 15.0837 8.13912 15.2287L4.37924 17.1414C3.65152 17.5116 2.81082 16.9008 2.93803 16.0943L3.59527 11.9274C3.64507 11.6116 3.54092 11.2911 3.31504 11.0649L0.334074 8.08013C-0.242894 7.50242 0.0782192 6.51413 0.884565 6.38589L5.05064 5.72331C5.36632 5.6731 5.63898 5.475 5.78428 5.19028L7.70182 1.43286Z" fill="white"/>
</svg>
