<svg width="19" height="17" viewBox="0 0 19 17" fill="currentColor" xmlns="http://www.w3.org/2000/svg">
<path d="M8.5944 1.14185C8.96554 0.414595 10.0047 0.414593 10.3758 1.14184L12.2934 4.89926C12.4387 5.18398 12.7113 5.38208 13.027 5.43229L17.1931 6.09487C17.9994 6.22311 18.3205 7.2114 17.7436 7.78911L14.7626 10.7739C14.5367 11.0001 14.4326 11.3206 14.4824 11.6364L15.1396 15.8033C15.2668 16.6098 14.4261 17.2206 13.6984 16.8504L9.93853 14.9377C9.65363 14.7927 9.3166 14.7927 9.0317 14.9377L5.27182 16.8504C4.54409 17.2206 3.7034 16.6098 3.83061 15.8033L4.48785 11.6364C4.53765 11.3206 4.4335 11.0001 4.20762 10.7739L1.22665 7.78911C0.649684 7.2114 0.970797 6.22311 1.77714 6.09487L5.94321 5.43229C6.2589 5.38208 6.53156 5.18398 6.67686 4.89926L8.5944 1.14185Z"/>
</svg>
