<svg width="22" height="21" viewBox="0 0 22 21" stroke-width="2" fill="none" xmlns="http://www.w3.org/2000/svg">
<path d="M15.0251 12.8939L14.2114 12.3127C14.1532 12.3941 14.0966 12.4737 14.0415 12.5511C13.7205 13.002 13.4512 13.3803 13.2307 13.6356C13.1949 13.6208 13.1552 13.6048 13.1116 13.5872C12.5783 13.3719 11.4727 12.9256 10.1072 11.7099L10.1072 11.7098C9.11259 10.8245 8.38283 9.73295 8.05635 9.2043C8.13033 9.11519 8.2063 9.03239 8.2952 8.9377C8.31019 8.92173 8.32584 8.90512 8.34206 8.88791C8.42967 8.79494 8.5338 8.68444 8.63839 8.5639C8.65335 8.54665 8.66833 8.52948 8.6833 8.5123C8.87475 8.29275 9.06678 8.07253 9.25322 7.67948C9.61904 6.94857 9.31315 6.26509 9.19601 6.02192C9.19477 6.01919 9.19026 6.00927 9.18136 5.98894C9.17114 5.96558 9.15789 5.93483 9.14162 5.89667C9.10913 5.82049 9.06701 5.72039 9.01733 5.60152C8.91809 5.36407 8.7912 5.05769 8.65593 4.73017C8.54824 4.4694 8.4351 4.19491 8.32684 3.93222C8.16421 3.53765 8.01257 3.16973 7.90686 2.91503L7.90596 2.91288C7.74721 2.5329 7.52683 2.11926 7.1222 1.8549C6.73773 1.6037 6.32282 1.58817 6.13206 1.58103C6.12205 1.58066 6.11266 1.5803 6.10392 1.57994C6.09222 1.57936 6.08016 1.57874 6.06775 1.57811C5.93415 1.57132 5.7606 1.5625 5.56979 1.5625C4.86622 1.5625 3.97639 1.76189 3.36549 2.38545L3.3653 2.38564C3.35349 2.3977 3.34115 2.41026 3.32832 2.42333C2.8308 2.92967 1.58984 4.19262 1.58984 6.63169C1.58984 7.90243 2.04702 9.09446 2.48603 9.95995C2.9085 10.7928 3.35642 11.4036 3.49228 11.5888C3.49992 11.5992 3.50658 11.6083 3.51219 11.616L3.52458 11.6327C3.52287 11.6304 3.52335 11.6311 3.52769 11.6373C3.53331 11.6453 3.54538 11.6625 3.5675 11.6945C3.57361 11.7034 3.5802 11.7129 3.58723 11.7231C3.6169 11.7661 3.65451 11.8205 3.69808 11.8829C3.80683 12.0387 3.95551 12.2481 4.14162 12.4969C4.51335 12.9937 5.0349 13.6483 5.69041 14.3527C6.99173 15.7511 8.86628 17.395 11.1922 18.3586C12.8991 19.0663 14.0671 19.4136 14.9404 19.5521C15.8564 19.6974 16.4236 19.6082 16.8872 19.5095L16.8902 19.5089C17.5767 19.3605 18.3217 19.042 18.9549 18.6134C19.57 18.1971 20.204 17.5919 20.4814 16.8088L20.4815 16.8082C20.6859 16.23 20.7914 15.6867 20.8298 15.2454C20.8489 15.0257 20.8527 14.817 20.839 14.6319C20.8292 14.4983 20.8024 14.2148 20.6587 13.9608L20.6587 13.9608L20.6549 13.9542C20.4551 13.6072 20.1401 13.4262 19.9823 13.34C19.8852 13.2869 19.7399 13.2166 19.6096 13.1535C19.5398 13.1197 19.4742 13.088 19.4228 13.0622L19.4197 13.0607C19.2035 12.953 18.5722 12.6405 17.9443 12.3373C17.364 12.057 16.689 11.7362 16.4128 11.6373C16.0925 11.5182 15.6901 11.4469 15.2604 11.5587C14.8123 11.6753 14.4626 11.9578 14.2089 12.3161L15.0251 12.8939ZM15.0251 12.8939C15.3165 12.4823 15.6845 12.4313 16.0706 12.577M15.0251 12.8939C14.9697 12.9715 14.9144 13.0493 14.8594 13.1266C14.5078 13.6211 14.1686 14.0981 13.8867 14.4021M16.0706 12.577L13.1932 13.7589L13.1958 13.7527M16.0706 12.577C16.4641 12.7136 18.546 13.7427 18.9741 13.9559C19.0625 14.0003 19.1447 14.0398 19.2204 14.0763C19.5111 14.2163 19.7059 14.31 19.7883 14.4531M16.0706 12.577L19.7883 14.4531M13.8867 14.4021L13.1972 13.754L13.2359 13.6611C13.2548 13.6527 13.2682 13.6502 13.2737 13.6494C13.2762 13.6491 13.2774 13.649 13.2774 13.649C13.2775 13.649 13.2752 13.6491 13.2707 13.6485C13.263 13.6474 13.2529 13.6449 13.2423 13.6404L13.2332 13.6624M13.8867 14.4021C13.6298 14.6753 13.2109 14.71 12.8593 14.5642M13.8867 14.4021L12.8593 14.5642M13.2332 13.6624C13.2319 13.6629 13.2307 13.6635 13.2294 13.6641C13.2062 13.6754 13.1807 13.6931 13.158 13.7172L13.1958 13.7527M13.2332 13.6624L13.1958 13.7527M13.2332 13.6624L13.1958 13.7527M12.8593 14.5642C12.821 14.5483 12.7771 14.5305 12.7279 14.5106C12.1713 14.2858 10.9367 13.7872 9.44225 12.4568C8.18179 11.3347 7.32569 9.93767 7.07797 9.51873M12.8593 14.5642L7.91492 9.37699C7.91492 9.37698 7.9152 9.37654 7.91579 9.37566C7.91912 9.37029 7.93159 9.34882 7.94349 9.3139C7.95318 9.28546 7.9606 9.2537 7.96471 9.22011C7.96583 9.21088 7.96671 9.20151 7.96731 9.19204C7.96913 9.1635 7.96848 9.13399 7.96476 9.10435C7.95886 9.05738 7.94747 9.02789 7.94319 9.01801L7.83177 9.08249L7.81458 9.09244L7.07797 9.51873M7.07797 9.51873L7.80815 9.08697L7.825 9.07701L7.93875 9.00975C7.93974 9.01143 7.94075 9.01313 7.94176 9.01484M7.07797 9.51873C6.83475 9.09847 7.04455 8.85203 7.23844 8.62427C7.24203 8.62005 7.24561 8.61584 7.24919 8.61164C7.3742 8.45696 7.49551 8.32817 7.61743 8.19873C7.70513 8.10563 7.79314 8.01219 7.88306 7.90854C7.89642 7.89315 7.90941 7.87821 7.92206 7.86367C8.113 7.64412 8.22671 7.51339 8.35483 7.24006L7.94176 9.01484M7.94176 9.01484C7.94159 9.01449 7.94151 9.01431 7.94151 9.01431C7.94151 9.01431 7.94174 9.01475 7.94222 9.01562L7.94176 9.01484ZM19.7883 14.4531C19.8903 14.6334 19.8903 15.4804 19.5387 16.475L19.7883 14.4531ZM6.05794 2.57889C6.48599 2.59711 6.70092 2.62261 6.98325 3.29838L5.56979 2.5625C5.73389 2.5625 5.8829 2.57004 6.01821 2.57689C6.03159 2.57757 6.04483 2.57824 6.05794 2.57889Z"   stroke-linejoin="round"/>
</svg>
