<svg stroke-width="2" stroke-linejoin="round" viewBox="0 0 21 18" fill="none" xmlns="http://www.w3.org/2000/svg">
  <path d="M8.0209 10.3503C7.82801 10.5235 7.70991 10.7648 7.69153 11.0234L7.41761 14.8762C7.39793 15.1531 7.49418 15.4256 7.68334 15.6287C7.8725 15.8318 8.13756 15.9471 8.41509 15.9471C8.77011 15.9471 9.08549 15.8667 9.36769 15.7041C9.60109 15.5696 9.7767 15.3942 9.86813 15.3029C9.87171 15.2994 9.87516 15.2959 9.87848 15.2926L11.1028 14.1225L14.2341 16.4156C14.2674 16.44 14.3021 16.4623 14.3381 16.4823C14.8043 16.7421 15.4617 16.9518 16.1181 16.6545C16.7706 16.3589 17.0558 15.7272 17.1785 15.1887L17.1786 15.1887L17.1815 15.1752L19.6739 3.49602C19.6765 3.48584 19.6788 3.47561 19.681 3.46534C19.8287 2.77712 19.7654 1.99803 19.2081 1.46165C18.6387 0.913754 17.8733 0.922692 17.3009 1.13574L17.3009 1.1357L17.2922 1.13903L2.60261 6.76301L2.60261 6.763L2.5983 6.76467C2.28144 6.88767 1.98011 7.04779 1.73676 7.26097C1.49904 7.46922 1.23697 7.80205 1.19652 8.26064C1.15317 8.75209 1.38389 9.1421 1.64782 9.38885C1.89689 9.62169 2.20486 9.76369 2.49273 9.85302C2.49283 9.85305 2.49292 9.85308 2.49302 9.85311C2.49324 9.85318 2.49345 9.85325 2.49367 9.85331L6.24826 11.0211C6.52651 11.1077 6.82867 11.0686 7.0757 10.914L8.12269 10.2589L8.0209 10.3503Z"/>
</svg>
