<svg width="21" height="21" viewBox="0 0 21 21" fill="none" xmlns="http://www.w3.org/2000/svg">
<path d="M6.62327 17.7741C7.93621 18.5429 9.45941 18.9805 11.086 18.9805C15.9753 18.9805 19.9493 15.0039 19.9493 10.1153C19.9493 5.22659 15.9753 1.25 11.086 1.25H11.082C6.19281 1.25 2.21875 5.22553 2.21875 10.1153C2.21875 11.8653 2.72847 13.502 3.60999 14.8783L2.78782 17.3292L2.15993 19.2009L4.04039 18.5997L6.62327 17.7741ZM14.1323 12.5099C14.3758 12.6275 14.6211 12.7481 14.7791 12.8263C14.7637 12.8879 14.7442 12.9542 14.7197 13.0235L15.6626 13.3567L14.7199 13.0229C14.7212 13.0193 14.7208 13.0198 14.7178 13.0242C14.7055 13.0421 14.6487 13.1246 14.4844 13.2358C14.2991 13.3612 14.0792 13.452 13.9091 13.489C13.7873 13.5149 13.6784 13.5376 13.4218 13.4969C13.2553 13.4705 13.0264 13.4165 12.7071 13.3123C12.931 13.2478 13.1504 13.125 13.3405 12.9228L13.3405 12.9228L13.345 12.9179C13.4898 12.7618 13.6489 12.551 13.795 12.3487C13.8991 12.3978 14.0147 12.4531 14.1323 12.5099ZM8.05463 6.8518C8.08583 6.92742 8.12023 7.01089 8.15641 7.09869C8.2985 7.44346 8.46807 7.85491 8.57902 8.11918C8.55694 8.14344 8.5333 8.16855 8.50366 8.20004C8.49359 8.21074 8.48283 8.22218 8.4712 8.23456C8.41354 8.29599 8.34082 8.37445 8.26316 8.46946C8.26259 8.4701 8.26198 8.47079 8.26133 8.47153C8.22235 8.51538 8.0399 8.72069 7.94647 8.99493C7.91746 9.08007 7.898 9.16535 7.88732 9.25012C7.86869 9.21575 7.85002 9.18023 7.83146 9.14366C7.64398 8.77405 7.51429 8.38286 7.51429 8.04374C7.51429 7.6598 7.60903 7.40725 7.70262 7.23985C7.79266 7.07879 7.89261 6.9727 7.9998 6.86309C8.01124 6.85967 8.02696 6.85592 8.04674 6.85292C8.04934 6.85253 8.05197 6.85216 8.05463 6.8518ZM8.69562 8.38915C8.69556 8.3891 8.69491 8.3877 8.69384 8.38503C8.69515 8.38786 8.69569 8.38919 8.69562 8.38915Z" stroke="white" stroke-width="2"/>
</svg>
